<?xml version="1.0" encoding="UTF-8" standalone="no"?>
<svg
   width="800"
   height="1024"
   viewBox="0 0 800 1024"
   version="1.1"
   id="svg31"
   sodipodi:docname="s4867.svg.old"
   xmlns:inkscape="http://www.inkscape.org/namespaces/inkscape"
   xmlns:sodipodi="http://sodipodi.sourceforge.net/DTD/sodipodi-0.dtd"
   xmlns="http://www.w3.org/2000/svg"
   xmlns:svg="http://www.w3.org/2000/svg">
  <defs
     id="defs31" />
  <sodipodi:namedview
     id="namedview31"
     pagecolor="#ffffff"
     bordercolor="#000000"
     borderopacity="0.25"
     inkscape:showpageshadow="2"
     inkscape:pageopacity="0.0"
     inkscape:pagecheckerboard="0"
     inkscape:deskcolor="#d1d1d1" />
  <line
     x1="127.94"
     y1="176.20"
     x2="127.94"
     y2="875.80"
     stroke="black"
     stroke-width="2.59"
     id="line1" />
  <line
     x1="205.67"
     y1="176.20"
     x2="205.67"
     y2="875.80"
     stroke="black"
     stroke-width="2.59"
     id="line2" />
  <line
     x1="283.40"
     y1="176.20"
     x2="283.40"
     y2="875.80"
     stroke="black"
     stroke-width="2.59"
     id="line3" />
  <line
     x1="361.13"
     y1="176.20"
     x2="361.13"
     y2="875.80"
     stroke="black"
     stroke-width="2.59"
     id="line4" />
  <line
     x1="438.87"
     y1="176.20"
     x2="438.87"
     y2="875.80"
     stroke="black"
     stroke-width="2.59"
     id="line5" />
  <line
     x1="516.60"
     y1="176.20"
     x2="516.60"
     y2="875.80"
     stroke="black"
     stroke-width="2.59"
     id="line6" />
  <line
     x1="594.33"
     y1="176.20"
     x2="594.33"
     y2="875.80"
     stroke="black"
     stroke-width="2.59"
     id="line7" />
  <line
     x1="672.06"
     y1="176.20"
     x2="672.06"
     y2="875.80"
     stroke="black"
     stroke-width="2.59"
     id="line8" />
  <line
     x1="749.80"
     y1="176.20"
     x2="749.80"
     y2="875.80"
     stroke="black"
     stroke-width="6.48"
     id="line9" />
  <line
     x1="50.20"
     y1="253.94"
     x2="749.80"
     y2="253.94"
     stroke="black"
     stroke-width="2.59"
     id="line10" />
  <line
     x1="50.20"
     y1="331.67"
     x2="749.80"
     y2="331.67"
     stroke="black"
     stroke-width="2.59"
     id="line11" />
  <line
     x1="50.20"
     y1="409.40"
     x2="749.80"
     y2="409.40"
     stroke="black"
     stroke-width="2.59"
     id="line12" />
  <line
     x1="50.20"
     y1="487.13"
     x2="749.80"
     y2="487.13"
     stroke="black"
     stroke-width="2.59"
     id="line13" />
  <line
     x1="50.20"
     y1="564.87"
     x2="749.80"
     y2="564.87"
     stroke="black"
     stroke-width="2.59"
     id="line14" />
  <line
     x1="50.20"
     y1="642.60"
     x2="749.80"
     y2="642.60"
     stroke="black"
     stroke-width="2.59"
     id="line15" />
  <line
     x1="50.20"
     y1="720.33"
     x2="749.80"
     y2="720.33"
     stroke="black"
     stroke-width="2.59"
     id="line16" />
  <line
     x1="50.20"
     y1="798.06"
     x2="749.80"
     y2="798.06"
     stroke="black"
     stroke-width="2.59"
     id="line17" />
  <line
     x1="50.20"
     y1="875.80"
     x2="749.80"
     y2="875.80"
     stroke="black"
     stroke-width="6.48"
     id="line18" />
  <circle
     cx="50.20"
     cy="176.20"
     r="7.77"
     fill="black"
     id="circle18" />
  <circle
     cx="50.20"
     cy="642.60"
     r="7.77"
     fill="black"
     id="circle19" />
  <circle
     cx="516.60"
     cy="176.20"
     r="7.77"
     fill="black"
     id="circle20" />
  <circle
     cx="516.60"
     cy="642.60"
     r="7.77"
     fill="black"
     id="circle21" />
  <circle
     cx="516.60"
     cy="720.33"
     r="35.40"
     fill="black"
     stroke="black"
     stroke-width="1.00"
     id="circle22" />
  <circle
     cx="516.60"
     cy="642.60"
     r="35.40"
     fill="black"
     stroke="black"
     stroke-width="1.00"
     id="circle23" />
  <circle
     cx="516.60"
     cy="564.87"
     r="35.40"
     fill="black"
     stroke="black"
     stroke-width="1.00"
     id="circle24" />
  <circle
     cx="438.87"
     cy="331.67"
     r="35.40"
     fill="black"
     stroke="black"
     stroke-width="1.00"
     id="circle25" />
  <circle
     cx="594.33"
     cy="642.60"
     r="34.20"
     fill="white"
     stroke="black"
     stroke-width="3.09"
     id="circle26" />
  <circle
     cx="672.06"
     cy="487.13"
     r="34.20"
     fill="white"
     stroke="black"
     stroke-width="3.09"
     id="circle27" />
  <circle
     cx="594.33"
     cy="720.33"
     r="34.20"
     fill="white"
     stroke="black"
     stroke-width="3.09"
     id="circle28" />
  <circle
     cx="594.33"
     cy="798.06"
     r="34.20"
     fill="white"
     stroke="black"
     stroke-width="3.09"
     id="circle29" />
  <circle
     cx="283.40"
     cy="720.33"
     r="35.40"
     fill="lightgray"
     stroke="black"
     stroke-width="1.00"
     id="circle30" />
  <path
     d="m 289.4134,725.95682 3.21,9.3732 h 4.4512 l -10.9568,-31.2012 h -5.136 l -11.128,31.2012 h 4.2372 l 3.2956,-9.3732 z m -1.1128,-3.3384 h -9.9296 l 5.136,-14.2096 z"
     id="text30"
     style="font-size:42.8px;font-family:Helvetica, Arial, sans-serif;text-anchor:middle"
     aria-label="A" />
  <path
     d="m 285.78401,932.128 c -7.104,0 -11.328,5.04 -11.328,13.488 0,8.496 4.224,13.488 11.376,13.488 7.104,0 11.376,-5.04 11.376,-13.296 0,-8.736 -4.128,-13.68 -11.424,-13.68 z m 0.048,3.696 c 4.512,0 7.2,3.696 7.2,9.936 0,5.952 -2.784,9.648 -7.2,9.648 -4.464,0 -7.2,-3.696 -7.2,-9.792 0,-6.096 2.736,-9.792 7.2,-9.792 z M 302.728,932.848 V 958 h 4.032 v -13.056 c 0.048,-6.048 2.544,-8.736 8.064,-8.592 v -4.08 c -0.672,-0.096 -1.056,-0.144 -1.536,-0.144 -2.592,0 -4.56,1.536 -6.864,5.28 v -4.56 z m 61.728,25.152 8.88,-34.992 h -4.992 l -6.432,28.416 -7.968,-28.416 h -4.8 l -7.776,28.416 -6.576,-28.416 H 329.8 L 338.776,958 h 4.896 l 7.824,-28.752 8.064,28.752 z m 39.93601,-31.056 h 11.472 v -3.936 h -27.456 v 3.936 h 11.52 V 958 h 4.464 z m 32.49598,19.824 c 0,-3.84 -0.288,-6.144 -1.008,-8.016 -1.632,-4.128 -5.472,-6.624 -10.176,-6.624 -7.008,0 -11.52,5.328 -11.52,13.632 0,8.304 4.32,13.344 11.424,13.344 5.76,0 9.744,-3.264 10.752,-8.736 h -4.032 c -1.104,3.312 -3.36,5.04 -6.576,5.04 -2.544,0 -4.704,-1.152 -6.048,-3.264 -0.96,-1.44 -1.296,-2.88 -1.344,-5.376 z m -18.432,-3.264 c 0.336,-4.656 3.168,-7.68 7.2,-7.68 4.08,0 6.912,3.168 6.912,7.68 z m 23.85599,-10.656 V 958 h 4.032 v -13.872 c 0,-5.136 2.688,-8.496 6.816,-8.496 3.168,0 5.184,1.92 5.184,4.944 V 958 h 3.984 v -19.008 c 0,-4.176 -3.12,-6.864 -7.968,-6.864 -3.744,0 -6.144,1.44 -8.352,4.944 v -4.224 z M 488.77597,958 v -25.152 h -3.984 v 14.256 c 0,5.136 -2.688,8.496 -6.864,8.496 -3.168,0 -5.184,-1.92 -5.184,-4.944 v -17.808 h -3.984 v 19.392 c 0,4.176 3.12,6.864 8.016,6.864 3.696,0 6.048,-1.296 8.4,-4.608 V 958 Z m 10.31999,-34.992 h -3.984 V 958 h 3.984 v -9.792 l 3.888,-3.84 8.496,13.632 h 4.944 l -10.272,-16.464 8.736,-8.688 h -5.136 l -10.656,10.656 z m 24.72002,9.84 h -3.984 V 958 h 3.984 z m 0,-9.84 h -4.032 v 5.04 h 4.032 z"
     id="text31"
     style="font-size:48px;font-family:Helvetica, Arial, sans-serif;text-anchor:middle"
     aria-label="or W Tenuki" />
</svg>
